<?xml version="1.0" encoding="UTF-8" standalone="no"?>
<svg width="371px" height="97px" viewBox="0 0 371 97" version="1.1" xmlns="http://www.w3.org/2000/svg" xmlns:xlink="http://www.w3.org/1999/xlink" xmlns:sketch="http://www.bohemiancoding.com/sketch/ns">
    <!-- Generator: Sketch 3.3.2 (12043) - http://www.bohemiancoding.com/sketch -->
    <title>brang_logo</title>
    <desc>Created with Sketch.</desc>
    <defs></defs>
    <g id="Start-Here" stroke="none" stroke-width="1" fill="none" fill-rule="evenodd" sketch:type="MSPage">
        <g id="Login" sketch:type="MSArtboardGroup" transform="translate(-525.000000, -208.000000)" fill="#7CC12D">
            <g id="Group" sketch:type="MSLayerGroup" transform="translate(389.000000, 67.000000)">
                <g id="brang_logo" transform="translate(136.000000, 141.000000)" sketch:type="MSShapeGroup">
                    <path d="M39.5994054,96.693962 C35.8803885,90.7025478 42.5487759,82.9412419 47.1068722,87.956054 C48.5237262,89.5148731 47.8643411,89.686826 44.7069503,88.5819063 C41.8949996,87.5978664 41.8949996,87.5978664 41.57288,91.4620389 C41.3957107,93.5873409 41.2071428,95.6484364 41.1538389,96.0422562 C41.0379777,96.8982752 39.9971061,97.3346632 39.5994054,96.693962 L39.5994054,96.693962 Z M32.4034084,89.472925 C32.2432304,89.2148712 34.2960142,87.6049649 36.9651545,85.8953613 C39.6342878,84.185756 41.818132,82.442301 41.818132,82.0210181 C41.818132,81.4323969 41.5461917,81.5094136 40.6436093,82.3536736 C39.164851,83.7368758 38.658383,83.7448894 38.8648685,82.3818151 C38.9872505,81.5739434 39.7117498,81.100183 41.818132,80.450629 C43.3532355,79.9772396 45.1230477,79.3140927 45.7510459,78.976964 C47.4096901,78.0865582 47.5719955,81.3269843 45.9588107,83.1250722 C44.4407465,84.8171344 32.8752814,90.2331193 32.4034084,89.472925 L32.4034084,89.472925 Z M35.0302654,83.4347167 C32.3973915,80.3192886 33.8172176,77.6095842 39.3609794,75.1696592 C42.5005094,73.7878828 43.2472806,73.0518568 42.3828827,72.1912055 C41.968196,71.7783161 41.818132,71.7865665 41.818132,72.2222532 C41.818132,72.5485999 41.1330433,73.1683429 40.2957117,73.5994662 C38.7650742,74.3875617 37.8124102,72.9872068 39.2692976,72.0907061 C44.0978366,69.1194374 47.4003339,69.2216382 47.4003339,72.3423257 C47.4003339,76.6982363 45.4967464,78.77199 40.670798,79.6734181 C38.4161244,80.0945632 37.8921753,80.6602634 37.672941,82.9101377 C37.4502218,85.1958579 36.6524498,85.3542162 35.0302654,83.4347167 L35.0302654,83.4347167 Z M33.0160086,75.9597298 C30.1747098,72.8337405 33.3046564,67.8155628 39.3354941,65.8278323 C44.6778931,64.0670073 46.1528738,61.4734552 42.8214455,59.6982512 C41.8920754,59.2030239 41.818132,59.3288611 41.818132,61.4057012 C41.818132,63.442625 41.6788242,63.6961314 40.2957117,64.1762006 C38.7732949,64.7046168 38.7732949,64.7046168 38.7732949,62.2515583 C38.7732949,59.7985033 38.7732949,59.7985033 41.6912626,58.9109366 C43.2961468,58.4227707 45.2814104,57.6908982 46.1029696,57.2845561 C47.522345,56.5825299 47.6547842,56.6129928 48.763577,57.896448 C52.4046386,62.1110877 50.1371949,66.9880881 43.4668752,69.2890212 C37.9137978,71.204558 37.1658431,71.6885687 37.3468344,73.2494036 C37.4700948,74.3123328 37.1388407,74.8587445 35.8327892,75.7468783 C33.8275657,77.1104596 34.0468746,77.0938864 33.0160086,75.9597298 L33.0160086,75.9597298 Z M30.9332912,65.5937205 C27.3762709,60.9504415 30.5224211,56.3786672 39.6499023,52.927317 C42.0176956,52.0319946 43.7845836,50.987907 44.6351538,49.9814426 C45.8802433,48.5081468 45.9530618,47.9437875 45.1478445,46.0080398 C44.8748325,45.3517247 45.2673733,45.133695 47.1958321,44.8705124 C48.507984,44.6914451 49.9147702,44.2695969 50.3220206,43.9330741 C51.3021448,43.1231619 52.277386,44.4123165 52.7379687,47.126669 C53.4490839,51.3174814 50.219776,54.5772827 42.7524614,57.2064706 C36.2292833,59.5032325 34.3091765,61.8403632 37.256652,63.895906 C38.2289335,64.5739672 38.1544613,64.6712389 35.6873971,65.945647 C32.4414438,67.6224116 32.4901468,67.6260156 30.9332912,65.5937205 L30.9332912,65.5937205 Z M29.3181014,52.8472881 C24.198466,47.4424209 30.6620766,38.5142713 39.7251765,38.4720353 C46.2910921,38.4414417 53.7437432,35.7357742 53.7437432,33.3826285 C53.7437432,31.7741639 52.3831137,31.5782884 50.5554783,32.9236606 C46.2084472,36.1236261 41.3028081,32.115531 45.3827679,28.697352 C49.5981175,25.165745 59.0722081,28.2376385 59.0722081,33.1360369 C59.0722081,38.6650894 53.5650817,42.4200421 43.1130707,44.0175374 C34.2449673,45.372946 32.1686571,47.377082 36.1643768,50.7246856 C37.6152402,51.9402172 37.6152402,51.9402172 35.0145196,53.2959704 C31.6793811,55.0345706 31.366616,55.0099324 29.3181014,52.8472881 L29.3181014,52.8472881 Z M38.7732949,48.588439 C38.7732949,45.5568011 38.7732949,45.5568011 40.2957117,45.5568011 C41.785299,45.5568011 41.818132,45.6115505 41.818132,48.0956708 C41.818132,50.5100178 40.9286285,51.6200804 38.9939949,51.6200804 C38.8726065,51.6200804 38.7732949,50.2558418 38.7732949,48.588439 L38.7732949,48.588439 Z M25.5730882,40.0511447 C18.2793676,35.1738581 20.1042012,28.2817896 28.9850624,27.1646868 C33.6130352,26.5825511 38.1652512,30.0496054 36.4181422,32.8258695 C35.5760819,34.1639594 31.8271472,34.242211 30.0827459,32.9581091 C27.9681022,31.401463 26.5939449,31.5696688 26.5939449,33.3851655 C26.5939449,35.0279815 29.1001251,36.5771951 32.8461497,37.2500128 C34.7848378,37.5982099 34.7848378,37.5982099 32.2482945,39.0406135 C30.8531907,39.8339348 29.5676704,40.7151255 29.3915782,40.9988157 C28.8680177,41.8422842 27.8878651,41.5990298 25.5730882,40.0511447 L25.5730882,40.0511447 Z M38.6012305,27.4932808 C38.4183317,22.2826496 38.2680459,16.0427817 38.2672581,13.626915 C38.2660178,9.84342826 38.1284135,9.13859723 37.2747417,8.54325382 C32.726974,5.37167866 37.3284111,-1.73283738 42.2793286,0.81628658 C45.1474843,2.29303855 45.5039522,5.71954426 43.0869608,8.5795275 C41.818132,10.0809114 41.818132,10.0809114 41.818132,23.5240314 C41.818132,36.9671547 41.818132,36.9671547 40.3759506,36.9671547 C38.9337674,36.9671547 38.9337674,36.9671547 38.6012305,27.4932808 L38.6012305,27.4932808 Z M24.5722162,23.290515 C23.8003004,22.7837194 22.8868482,21.9853366 22.5423254,21.5163268 C21.9547775,20.7164953 21.7808766,20.7164034 19.739589,21.5148463 C17.1335933,22.5341756 14.4704663,21.6478916 13.452028,19.4223587 C13.0136126,18.4643067 12.4864909,18.1553317 11.290438,18.1553317 C9.32439269,18.1553317 7.45293383,16.9046184 7.45293383,15.5906896 C7.45293383,14.7972752 7.21037181,14.6597839 6.23890653,14.9025477 C4.331671,15.3791578 0.348314837,12.7711337 0.348314837,11.0457971 C0.348314837,10.8719275 4.74429773,10.5930519 10.1171663,10.4260745 C18.6958678,10.1594669 20.3737657,9.96544713 23.8894963,8.83353391 C29.5379089,7.01499973 31.0735926,7.09774844 32.3730684,9.29064438 C32.9421433,10.250977 33.8478911,11.1757888 34.3858418,11.3457879 C36.3572865,11.9687898 35.799163,23.5003526 33.7780873,23.9028185 C30.5461871,24.5463959 26.0272973,24.2458339 24.5722162,23.290515 L24.5722162,23.290515 Z M46.2424299,23.791795 C44.2494017,23.2027127 43.9726689,11.8830904 45.9392767,11.3916414 C46.6270234,11.2197778 47.3340912,10.6262888 47.5105348,10.0727773 C48.4259956,7.20090992 50.5745227,6.91455134 56.6456244,8.85525543 C60.224175,9.99917909 61.860242,10.1871003 70.4478402,10.4405808 C80.190278,10.728147 80.190278,10.728147 79.4468958,12.1594556 C78.5223432,13.9395927 75.9790857,15.3090205 74.3525204,14.9025477 C73.4712056,14.6823102 73.1384913,14.8095178 73.1384913,15.3667027 C73.1384913,16.7314306 71.2097309,18.1553317 69.3611366,18.1553317 C67.9690226,18.1553317 67.4359905,18.4548249 66.7398989,19.6280958 C65.2642883,22.1152795 62.8541833,22.7800058 60.2376797,21.4214578 C58.8016074,20.6758157 58.7011176,20.7036268 57.0404737,22.3062066 C55.2412904,24.0424818 49.6794335,24.8076828 46.2424299,23.791795 L46.2424299,23.791795 Z" id="path2452"></path>
                    <path d="M105.86687,14.598 L112.93487,14.598 L138.97487,81 L132.18587,81 L124.09487,60.354 L93.8698696,60.354 L85.8718696,81 L79.1758696,81 L105.86687,14.598 Z M121.95587,54.96 L109.12187,20.922 L95.8228696,54.96 L121.95587,54.96 Z M143.81087,33.012 L182.12687,33.012 L182.12687,81 L176.26787,81 L176.26787,37.941 L149.66987,37.941 L149.66987,81 L143.81087,81 L143.81087,33.012 Z M205.28387,37.941 L187.52087,37.941 L187.52087,33.012 L228.90587,33.012 L228.90587,37.941 L211.14287,37.941 L211.14287,81 L205.28387,81 L205.28387,37.941 Z M253.64387,82.302 C249.79985,82.302 246.513883,81.6355067 243.78587,80.3025 C241.057856,78.9694933 238.825878,77.1405116 237.08987,74.8155 C235.353861,72.4904884 234.067374,69.8090152 233.23037,66.771 C232.393365,63.7329848 231.97487,60.4780174 231.97487,57.006 C231.97487,53.8439842 232.393365,50.7440152 233.23037,47.706 C234.067374,44.6679848 235.353861,41.9555119 237.08987,39.5685 C238.825878,37.1814881 241.057856,35.2595073 243.78587,33.8025 C246.513883,32.3454927 249.79985,31.617 253.64387,31.617 C257.487889,31.617 260.773856,32.3919923 263.50187,33.942 C266.229883,35.4920078 268.446361,37.5224874 270.15137,40.0335 C271.856378,42.5445126 273.080866,45.4274837 273.82487,48.6825 C274.568873,51.9375163 274.87887,55.2389833 274.75487,58.587 L237.83387,58.587 C237.83387,60.7570109 238.128367,62.9579888 238.71737,65.19 C239.306373,67.4220112 240.251863,69.436991 241.55387,71.235 C242.855876,73.033009 244.49886,74.5209941 246.48287,75.699 C248.46688,76.8770059 250.853856,77.466 253.64387,77.466 C257.921891,77.466 261.269858,76.3500112 263.68787,74.118 C266.105882,71.8859888 267.779865,68.9100186 268.70987,65.19 L274.56887,65.19 C273.328863,70.6460273 271.050386,74.8619851 267.73337,77.838 C264.416353,80.8140149 259.7199,82.302 253.64387,82.302 L253.64387,82.302 Z M268.89587,53.658 C268.833869,51.4259888 268.446373,49.2870102 267.73337,47.241 C267.020366,45.1949898 266.012876,43.3815079 264.71087,41.8005 C263.408863,40.2194921 261.827879,38.9485048 259.96787,37.9875 C258.10786,37.0264952 255.999881,36.546 253.64387,36.546 C251.225858,36.546 249.086879,37.0264952 247.22687,37.9875 C245.36686,38.9485048 243.785876,40.2194921 242.48387,41.8005 C241.181863,43.3815079 240.143373,45.2104896 239.36837,47.2875 C238.593366,49.3645104 238.081871,51.4879892 237.83387,53.658 L268.89587,53.658 Z M282.65987,33.012 L288.51887,33.012 L288.51887,57.657 L315.11687,33.012 L322.92887,33.012 L302.56187,51.798 L324.13787,81 L316.79087,81 L298.28387,55.797 L288.51887,64.818 L288.51887,81 L282.65987,81 L282.65987,33.012 Z M342.45887,82.302 C340.226858,82.302 338.134379,82.0385026 336.18137,81.5115 C334.22836,80.9844974 332.523377,80.1475057 331.06637,79.0005 C329.609362,77.8534943 328.462374,76.3965088 327.62537,74.6295 C326.788365,72.8624912 326.36987,70.7700121 326.36987,68.352 C326.36987,65.0039833 327.113862,62.3845095 328.60187,60.4935 C330.089877,58.6024905 332.058357,57.161005 334.50737,56.169 C336.956382,55.176995 339.715354,54.479502 342.78437,54.0765 C345.853385,53.673498 348.968854,53.2860019 352.13087,52.914 C353.308875,52.7899994 354.378365,52.6350009 355.33937,52.449 C356.300374,52.2629991 357.090866,51.9375023 357.71087,51.4725 C358.330873,51.0074977 358.811368,50.372004 359.15237,49.566 C359.493371,48.759996 359.66387,47.7060065 359.66387,46.404 C359.66387,44.4199901 359.338373,42.7925064 358.68737,41.5215 C358.036366,40.2504936 357.137375,39.2430037 355.99037,38.499 C354.843364,37.7549963 353.510377,37.2435014 351.99137,36.9645 C350.472362,36.6854986 348.844878,36.546 347.10887,36.546 C343.388851,36.546 340.350881,37.4294912 337.99487,39.1965 C335.638858,40.9635088 334.39887,43.7999805 334.27487,47.706 L328.41587,47.706 C328.787871,42.0639718 330.725352,37.9720127 334.22837,35.43 C337.731387,32.8879873 342.272842,31.617 347.85287,31.617 C349.96088,31.617 352.068859,31.818498 354.17687,32.2215 C356.28488,32.624502 358.175861,33.3839944 359.84987,34.5 C361.523878,35.6160056 362.887864,37.1814899 363.94187,39.1965 C364.995875,41.2115101 365.52287,43.8309839 365.52287,47.055 L365.52287,72.537 C365.52287,74.8930118 366.669858,76.071 368.96387,76.071 C369.707873,76.071 370.327867,75.9470012 370.82387,75.699 L370.82387,80.628 C370.141866,80.7520006 369.537372,80.8449997 369.01037,80.907 C368.483367,80.9690003 367.816874,81 367.01087,81 C365.522862,81 364.329374,80.798502 363.43037,80.3955 C362.531365,79.992498 361.833872,79.4190037 361.33787,78.675 C360.841867,77.9309963 360.51637,77.0475051 360.36137,76.0245 C360.206369,75.0014949 360.12887,73.8700062 360.12887,72.63 L359.94287,72.63 C358.888864,74.1800078 357.819375,75.559494 356.73437,76.7685 C355.649364,77.977506 354.440376,78.984996 353.10737,79.791 C351.774363,80.597004 350.239878,81.2169978 348.50387,81.651 C346.767861,82.0850022 344.752881,82.302 342.45887,82.302 L342.45887,82.302 Z M342.92387,77.466 C345.155881,77.466 347.294859,77.1250034 349.34087,76.443 C351.38688,75.7609966 353.169362,74.7690065 354.68837,73.467 C356.207377,72.1649935 357.416365,70.5840093 358.31537,68.724 C359.214374,66.8639907 359.66387,64.7560118 359.66387,62.4 L359.66387,54.774 L359.47787,54.774 C359.105868,55.4560034 358.392875,55.9519985 357.33887,56.262 C356.284864,56.5720016 355.354874,56.7889994 354.54887,56.913 C352.068857,57.3470022 349.511383,57.7344983 346.87637,58.0755 C344.241356,58.4165017 341.83888,58.9279966 339.66887,59.61 C337.498859,60.2920034 335.716377,61.2839935 334.32137,62.586 C332.926363,63.8880065 332.22887,65.6859885 332.22887,67.98 C332.22887,69.4680074 332.523367,70.7854943 333.11237,71.9325 C333.701373,73.0795057 334.491865,74.0714958 335.48387,74.9085 C336.475875,75.7455042 337.607363,76.3809978 338.87837,76.815 C340.149376,77.2490022 341.497862,77.466 342.92387,77.466 L342.92387,77.466 Z" id="Аптека"></path>
                </g>
            </g>
        </g>
    </g>
</svg>