<?xml version="1.0" encoding="UTF-8" standalone="no"?>
<svg width="377px" height="97px" viewBox="0 0 377 97" version="1.1" xmlns="http://www.w3.org/2000/svg" xmlns:xlink="http://www.w3.org/1999/xlink" xmlns:sketch="http://www.bohemiancoding.com/sketch/ns">
    <!-- Generator: Sketch 3.3.2 (12043) - http://www.bohemiancoding.com/sketch -->
    <title>logo</title>
    <desc>Created with Sketch.</desc>
    <defs></defs>
    <g id="Start-Here" stroke="none" stroke-width="1" fill="none" fill-rule="evenodd" sketch:type="MSPage">
        <g id="Login" sketch:type="MSArtboardGroup" transform="translate(-525.000000, -87.000000)" fill="#7CC12D">
            <g id="Group" sketch:type="MSLayerGroup" transform="translate(389.000000, 67.000000)">
                <g id="logo" transform="translate(136.000000, 20.000000)" sketch:type="MSShapeGroup">
                    <path d="M39.5994054,96.693962 C35.8803885,90.7025478 42.5487759,82.9412419 47.1068722,87.956054 C48.5237262,89.5148731 47.8643411,89.686826 44.7069503,88.5819063 C41.8949996,87.5978664 41.8949996,87.5978664 41.57288,91.4620389 C41.3957107,93.5873409 41.2071428,95.6484364 41.1538389,96.0422562 C41.0379777,96.8982752 39.9971061,97.3346632 39.5994054,96.693962 L39.5994054,96.693962 Z M32.4034084,89.472925 C32.2432304,89.2148712 34.2960142,87.6049649 36.9651545,85.8953613 C39.6342878,84.185756 41.818132,82.442301 41.818132,82.0210181 C41.818132,81.4323969 41.5461917,81.5094136 40.6436093,82.3536736 C39.164851,83.7368758 38.658383,83.7448894 38.8648685,82.3818151 C38.9872505,81.5739434 39.7117498,81.100183 41.818132,80.450629 C43.3532355,79.9772396 45.1230477,79.3140927 45.7510459,78.976964 C47.4096901,78.0865582 47.5719955,81.3269843 45.9588107,83.1250722 C44.4407465,84.8171344 32.8752814,90.2331193 32.4034084,89.472925 L32.4034084,89.472925 Z M35.0302654,83.4347167 C32.3973915,80.3192886 33.8172176,77.6095842 39.3609794,75.1696592 C42.5005094,73.7878828 43.2472806,73.0518568 42.3828827,72.1912055 C41.968196,71.7783161 41.818132,71.7865665 41.818132,72.2222532 C41.818132,72.5485999 41.1330433,73.1683429 40.2957117,73.5994662 C38.7650742,74.3875617 37.8124102,72.9872068 39.2692976,72.0907061 C44.0978366,69.1194374 47.4003339,69.2216382 47.4003339,72.3423257 C47.4003339,76.6982363 45.4967464,78.77199 40.670798,79.6734181 C38.4161244,80.0945632 37.8921753,80.6602634 37.672941,82.9101377 C37.4502218,85.1958579 36.6524498,85.3542162 35.0302654,83.4347167 L35.0302654,83.4347167 Z M33.0160086,75.9597298 C30.1747098,72.8337405 33.3046564,67.8155628 39.3354941,65.8278323 C44.6778931,64.0670073 46.1528738,61.4734552 42.8214455,59.6982512 C41.8920754,59.2030239 41.818132,59.3288611 41.818132,61.4057012 C41.818132,63.442625 41.6788242,63.6961314 40.2957117,64.1762006 C38.7732949,64.7046168 38.7732949,64.7046168 38.7732949,62.2515583 C38.7732949,59.7985033 38.7732949,59.7985033 41.6912626,58.9109366 C43.2961468,58.4227707 45.2814104,57.6908982 46.1029696,57.2845561 C47.522345,56.5825299 47.6547842,56.6129928 48.763577,57.896448 C52.4046386,62.1110877 50.1371949,66.9880881 43.4668752,69.2890212 C37.9137978,71.204558 37.1658431,71.6885687 37.3468344,73.2494036 C37.4700948,74.3123328 37.1388407,74.8587445 35.8327892,75.7468783 C33.8275657,77.1104596 34.0468746,77.0938864 33.0160086,75.9597298 L33.0160086,75.9597298 Z M30.9332912,65.5937205 C27.3762709,60.9504415 30.5224211,56.3786672 39.6499023,52.927317 C42.0176956,52.0319946 43.7845836,50.987907 44.6351538,49.9814426 C45.8802433,48.5081468 45.9530618,47.9437875 45.1478445,46.0080398 C44.8748325,45.3517247 45.2673733,45.133695 47.1958321,44.8705124 C48.507984,44.6914451 49.9147702,44.2695969 50.3220206,43.9330741 C51.3021448,43.1231619 52.277386,44.4123165 52.7379687,47.126669 C53.4490839,51.3174814 50.219776,54.5772827 42.7524614,57.2064706 C36.2292833,59.5032325 34.3091765,61.8403632 37.256652,63.895906 C38.2289335,64.5739672 38.1544613,64.6712389 35.6873971,65.945647 C32.4414438,67.6224116 32.4901468,67.6260156 30.9332912,65.5937205 L30.9332912,65.5937205 Z M29.3181014,52.8472881 C24.198466,47.4424209 30.6620766,38.5142713 39.7251765,38.4720353 C46.2910921,38.4414417 53.7437432,35.7357742 53.7437432,33.3826285 C53.7437432,31.7741639 52.3831137,31.5782884 50.5554783,32.9236606 C46.2084472,36.1236261 41.3028081,32.115531 45.3827679,28.697352 C49.5981175,25.165745 59.0722081,28.2376385 59.0722081,33.1360369 C59.0722081,38.6650894 53.5650817,42.4200421 43.1130707,44.0175374 C34.2449673,45.372946 32.1686571,47.377082 36.1643768,50.7246856 C37.6152402,51.9402172 37.6152402,51.9402172 35.0145196,53.2959704 C31.6793811,55.0345706 31.366616,55.0099324 29.3181014,52.8472881 L29.3181014,52.8472881 Z M38.7732949,48.588439 C38.7732949,45.5568011 38.7732949,45.5568011 40.2957117,45.5568011 C41.785299,45.5568011 41.818132,45.6115505 41.818132,48.0956708 C41.818132,50.5100178 40.9286285,51.6200804 38.9939949,51.6200804 C38.8726065,51.6200804 38.7732949,50.2558418 38.7732949,48.588439 L38.7732949,48.588439 Z M25.5730882,40.0511447 C18.2793676,35.1738581 20.1042012,28.2817896 28.9850624,27.1646868 C33.6130352,26.5825511 38.1652512,30.0496054 36.4181422,32.8258695 C35.5760819,34.1639594 31.8271472,34.242211 30.0827459,32.9581091 C27.9681022,31.401463 26.5939449,31.5696688 26.5939449,33.3851655 C26.5939449,35.0279815 29.1001251,36.5771951 32.8461497,37.2500128 C34.7848378,37.5982099 34.7848378,37.5982099 32.2482945,39.0406135 C30.8531907,39.8339348 29.5676704,40.7151255 29.3915782,40.9988157 C28.8680177,41.8422842 27.8878651,41.5990298 25.5730882,40.0511447 L25.5730882,40.0511447 Z M38.6012305,27.4932808 C38.4183317,22.2826496 38.2680459,16.0427817 38.2672581,13.626915 C38.2660178,9.84342826 38.1284135,9.13859723 37.2747417,8.54325382 C32.726974,5.37167866 37.3284111,-1.73283738 42.2793286,0.81628658 C45.1474843,2.29303855 45.5039522,5.71954426 43.0869608,8.5795275 C41.818132,10.0809114 41.818132,10.0809114 41.818132,23.5240314 C41.818132,36.9671547 41.818132,36.9671547 40.3759506,36.9671547 C38.9337674,36.9671547 38.9337674,36.9671547 38.6012305,27.4932808 L38.6012305,27.4932808 Z M24.5722162,23.290515 C23.8003004,22.7837194 22.8868482,21.9853366 22.5423254,21.5163268 C21.9547775,20.7164953 21.7808766,20.7164034 19.739589,21.5148463 C17.1335933,22.5341756 14.4704663,21.6478916 13.452028,19.4223587 C13.0136126,18.4643067 12.4864909,18.1553317 11.290438,18.1553317 C9.32439269,18.1553317 7.45293383,16.9046184 7.45293383,15.5906896 C7.45293383,14.7972752 7.21037181,14.6597839 6.23890653,14.9025477 C4.331671,15.3791578 0.348314837,12.7711337 0.348314837,11.0457971 C0.348314837,10.8719275 4.74429773,10.5930519 10.1171663,10.4260745 C18.6958678,10.1594669 20.3737657,9.96544713 23.8894963,8.83353391 C29.5379089,7.01499973 31.0735926,7.09774844 32.3730684,9.29064438 C32.9421433,10.250977 33.8478911,11.1757888 34.3858418,11.3457879 C36.3572865,11.9687898 35.799163,23.5003526 33.7780873,23.9028185 C30.5461871,24.5463959 26.0272973,24.2458339 24.5722162,23.290515 L24.5722162,23.290515 Z M46.2424299,23.791795 C44.2494017,23.2027127 43.9726689,11.8830904 45.9392767,11.3916414 C46.6270234,11.2197778 47.3340912,10.6262888 47.5105348,10.0727773 C48.4259956,7.20090992 50.5745227,6.91455134 56.6456244,8.85525543 C60.224175,9.99917909 61.860242,10.1871003 70.4478402,10.4405808 C80.190278,10.728147 80.190278,10.728147 79.4468958,12.1594556 C78.5223432,13.9395927 75.9790857,15.3090205 74.3525204,14.9025477 C73.4712056,14.6823102 73.1384913,14.8095178 73.1384913,15.3667027 C73.1384913,16.7314306 71.2097309,18.1553317 69.3611366,18.1553317 C67.9690226,18.1553317 67.4359905,18.4548249 66.7398989,19.6280958 C65.2642883,22.1152795 62.8541833,22.7800058 60.2376797,21.4214578 C58.8016074,20.6758157 58.7011176,20.7036268 57.0404737,22.3062066 C55.2412904,24.0424818 49.6794335,24.8076828 46.2424299,23.791795 L46.2424299,23.791795 Z" id="path2452"></path>
                    <path d="M113.218906,3.312 L120.210906,3.312 L145.970906,69 L139.254906,69 L131.250906,48.576 L101.350906,48.576 L93.4389065,69 L86.8149065,69 L113.218906,3.312 Z M129.134906,43.24 L116.438906,9.568 L103.282906,43.24 L129.134906,43.24 Z M150.754906,21.528 L188.658906,21.528 L188.658906,69 L182.862906,69 L182.862906,26.404 L156.550906,26.404 L156.550906,69 L150.754906,69 L150.754906,21.528 Z M211.566906,26.404 L193.994906,26.404 L193.994906,21.528 L234.934906,21.528 L234.934906,26.404 L217.362906,26.404 L217.362906,69 L211.566906,69 L211.566906,26.404 Z M259.406906,70.288 C255.604221,70.288 252.353587,69.6286733 249.654906,68.31 C246.956226,66.9913267 244.748248,65.1820115 243.030906,62.882 C241.313565,60.5819885 240.040911,57.9293484 239.212906,54.924 C238.384902,51.9186516 237.970906,48.6986838 237.970906,45.264 C237.970906,42.1359844 238.384902,39.0693484 239.212906,36.064 C240.040911,33.0586516 241.313565,30.3753451 243.030906,28.014 C244.748248,25.6526549 246.956226,23.7513405 249.654906,22.31 C252.353587,20.8686595 255.604221,20.148 259.406906,20.148 C263.209592,20.148 266.460226,20.914659 269.158906,22.448 C271.857587,23.981341 274.050231,25.9899876 275.736906,28.474 C277.423582,30.9580124 278.634903,33.8099839 279.370906,37.03 C280.10691,40.2500161 280.413574,43.5159834 280.290906,46.828 L243.766906,46.828 C243.766906,48.9746774 244.058237,51.151989 244.640906,53.36 C245.223576,55.568011 246.1589,57.5613244 247.446906,59.34 C248.734913,61.1186756 250.36023,62.5906608 252.322906,63.756 C254.285583,64.9213392 256.646893,65.504 259.406906,65.504 C263.638928,65.504 266.950895,64.400011 269.342906,62.192 C271.734918,59.983989 273.390902,57.0400184 274.310906,53.36 L280.106906,53.36 C278.880234,58.7573603 276.626256,62.9279853 273.344906,65.872 C270.063557,68.8160147 265.417603,70.288 259.406906,70.288 L259.406906,70.288 Z M274.494906,41.952 C274.433573,39.743989 274.050243,37.6280101 273.344906,35.604 C272.63957,33.5799899 271.642913,31.7860078 270.354906,30.222 C269.0669,28.6579922 267.502916,27.4006714 265.662906,26.45 C263.822897,25.4993286 261.737585,25.024 259.406906,25.024 C257.014895,25.024 254.898916,25.4993286 253.058906,26.45 C251.218897,27.4006714 249.654913,28.6579922 248.366906,30.222 C247.0789,31.7860078 246.051577,33.5953231 245.284906,35.65 C244.518236,37.7046769 244.012241,39.8053226 243.766906,41.952 L274.494906,41.952 Z M288.110906,21.528 L293.906906,21.528 L293.906906,45.908 L320.218906,21.528 L327.946906,21.528 L307.798906,40.112 L329.142906,69 L321.874906,69 L303.566906,44.068 L293.906906,52.992 L293.906906,69 L288.110906,69 L288.110906,21.528 Z M347.266906,70.288 C345.058895,70.288 342.988916,70.0273359 341.056906,69.506 C339.124897,68.9846641 337.438247,68.1566723 335.996906,67.022 C334.555566,65.8873277 333.420911,64.4460087 332.592906,62.698 C331.764902,60.9499913 331.350906,58.880012 331.350906,56.488 C331.350906,53.1759834 332.086899,50.584676 333.558906,48.714 C335.030914,46.843324 336.978228,45.4173382 339.400906,44.436 C341.823585,43.4546618 344.552891,42.7646687 347.588906,42.366 C350.624922,41.9673313 353.706891,41.5840018 356.834906,41.216 C358.000246,41.0933327 359.058235,40.9400009 360.008906,40.756 C360.959578,40.5719991 361.74157,40.2500023 362.354906,39.79 C362.968243,39.3299977 363.443571,38.7013373 363.780906,37.904 C364.118241,37.1066627 364.286906,36.0640064 364.286906,34.776 C364.286906,32.8133235 363.96491,31.2033396 363.320906,29.946 C362.676903,28.6886604 361.787579,27.6920037 360.652906,26.956 C359.518234,26.2199963 358.199581,25.7140014 356.696906,25.438 C355.194232,25.1619986 353.584248,25.024 351.866906,25.024 C348.186888,25.024 345.181585,25.8979913 342.850906,27.646 C340.520228,29.3940087 339.293574,32.1999807 339.170906,36.064 L333.374906,36.064 C333.742908,30.4826388 335.659556,26.4346792 339.124906,23.92 C342.590257,21.4053208 347.082879,20.148 352.602906,20.148 C354.68825,20.148 356.773563,20.3473313 358.858906,20.746 C360.94425,21.1446687 362.814898,21.8959945 364.470906,23 C366.126915,24.1040055 367.476235,25.6526567 368.518906,27.646 C369.561578,29.6393433 370.082906,32.2306507 370.082906,35.42 L370.082906,60.628 C370.082906,62.9586783 371.217562,64.124 373.486906,64.124 C374.22291,64.124 374.836237,64.0013346 375.326906,63.756 L375.326906,68.632 C374.652236,68.7546673 374.054242,68.8466664 373.532906,68.908 C373.011571,68.9693336 372.352244,69 371.554906,69 C370.082899,69 368.902244,68.8006687 368.012906,68.402 C367.123569,68.0033313 366.433576,67.4360037 365.942906,66.7 C365.452237,65.9639963 365.130241,65.0900051 364.976906,64.078 C364.823572,63.0659949 364.746906,61.9466728 364.746906,60.72 L364.562906,60.72 C363.520235,62.253341 362.462245,63.617994 361.388906,64.814 C360.315568,66.010006 359.11958,67.0066627 357.800906,67.804 C356.482233,68.6013373 354.964248,69.2146645 353.246906,69.644 C351.529565,70.0733355 349.536251,70.288 347.266906,70.288 L347.266906,70.288 Z M347.726906,65.504 C349.934918,65.504 352.050896,65.16667 354.074906,64.492 C356.098917,63.81733 357.862232,62.8360064 359.364906,61.548 C360.867581,60.2599936 362.063569,58.6960092 362.952906,56.856 C363.842244,55.0159908 364.286906,52.9306783 364.286906,50.6 L364.286906,43.056 L364.102906,43.056 C363.734905,43.73067 363.029578,44.2213318 361.986906,44.528 C360.944235,44.8346682 360.024244,45.0493327 359.226906,45.172 C356.773561,45.6013355 354.243586,45.984665 351.636906,46.322 C349.030227,46.659335 346.653584,47.16533 344.506906,47.84 C342.360229,48.51467 340.596913,49.4959936 339.216906,50.784 C337.8369,52.0720064 337.146906,53.8506553 337.146906,56.12 C337.146906,57.5920074 337.438237,58.8953277 338.020906,60.03 C338.603576,61.1646723 339.385568,62.1459959 340.366906,62.974 C341.348245,63.8020041 342.467567,64.4306645 343.724906,64.86 C344.982246,65.2893355 346.316233,65.504 347.726906,65.504 L347.726906,65.504 Z" id="Аптека"></path>
                    <path d="M87.4921655,76.8837778 L90.7681655,76.8837778 L90.7681655,87.2787778 L90.8311655,87.2787778 L96.5431655,76.8837778 L100.239165,76.8837778 L100.239165,91.8777778 L96.9631655,91.8777778 L96.9631655,81.4617778 L96.9001655,81.4617778 L91.1881655,91.8777778 L87.4921655,91.8777778 L87.4921655,76.8837778 Z M103.417754,81.0207778 L106.399754,81.0207778 L106.399754,84.9687778 L110.620754,84.9687778 L110.620754,81.0207778 L113.602754,81.0207778 L113.602754,91.8777778 L110.620754,91.8777778 L110.620754,87.3207778 L106.399754,87.3207778 L106.399754,91.8777778 L103.417754,91.8777778 L103.417754,81.0207778 Z M122.829342,91.1427778 L122.766342,91.1427778 C122.556341,91.4087791 122.241344,91.6432768 121.821342,91.8462778 C121.40134,92.0492788 120.967344,92.1507778 120.519342,92.1507778 C119.707338,92.1507778 119.021345,91.9862794 118.461342,91.6572778 C117.901339,91.3282761 117.449844,90.8942805 117.106842,90.3552778 C116.76384,89.8162751 116.515343,89.1932813 116.361342,88.4862778 C116.207341,87.7792742 116.130342,87.0477816 116.130342,86.2917778 C116.130342,85.4377735 116.231841,84.6677812 116.434842,83.9817778 C116.637843,83.2957743 116.92134,82.7112802 117.285342,82.2282778 C117.649344,81.7452754 118.093839,81.3742791 118.618842,81.1152778 C119.143845,80.8562765 119.728339,80.7267778 120.372342,80.7267778 C121.002345,80.7267778 121.52034,80.8387767 121.926342,81.0627778 C122.332344,81.2867789 122.612341,81.5457763 122.766342,81.8397778 L122.829342,81.8397778 L122.829342,76.8837778 L125.811342,76.8837778 L125.811342,81.8397778 L125.874342,81.8397778 C126.028343,81.5457763 126.30834,81.2867789 126.714342,81.0627778 C127.120344,80.8387767 127.638339,80.7267778 128.268342,80.7267778 C128.912345,80.7267778 129.496839,80.8562765 130.021842,81.1152778 C130.546845,81.3742791 130.99134,81.7452754 131.355342,82.2282778 C131.719344,82.7112802 132.002841,83.2957743 132.205842,83.9817778 C132.408843,84.6677812 132.510342,85.4377735 132.510342,86.2917778 C132.510342,87.0477816 132.433343,87.7792742 132.279342,88.4862778 C132.125341,89.1932813 131.876844,89.8162751 131.533842,90.3552778 C131.19084,90.8942805 130.739345,91.3282761 130.179342,91.6572778 C129.619339,91.9862794 128.933346,92.1507778 128.121342,92.1507778 C127.67334,92.1507778 127.239344,92.0492788 126.819342,91.8462778 C126.39934,91.6432768 126.084343,91.4087791 125.874342,91.1427778 L125.811342,91.1427778 L125.811342,95.6787778 L122.829342,95.6787778 L122.829342,91.1427778 Z M121.212342,89.9247778 C121.660344,89.9247778 122.027841,89.8197788 122.314842,89.6097778 C122.601843,89.3997767 122.773342,89.1547792 122.829342,88.8747778 L122.829342,84.1287778 C122.689341,83.6947756 122.451344,83.3937786 122.115342,83.2257778 C121.77934,83.0577769 121.450344,82.9737778 121.128342,82.9737778 C120.414338,82.9737778 119.899844,83.2747748 119.584842,83.8767778 C119.26984,84.4787808 119.112342,85.3047725 119.112342,86.3547778 C119.112342,86.80278 119.143842,87.2402756 119.206842,87.6672778 C119.269842,88.0942799 119.381841,88.4757761 119.542842,88.8117778 C119.703843,89.1477795 119.917341,89.4172768 120.183342,89.6202778 C120.449343,89.8232788 120.79234,89.9247778 121.212342,89.9247778 L121.212342,89.9247778 Z M127.428342,89.9247778 C127.848344,89.9247778 128.191341,89.8232788 128.457342,89.6202778 C128.723343,89.4172768 128.936841,89.1477795 129.097842,88.8117778 C129.258843,88.4757761 129.370842,88.0942799 129.433842,87.6672778 C129.496842,87.2402756 129.528342,86.80278 129.528342,86.3547778 C129.528342,85.3047725 129.370844,84.4787808 129.055842,83.8767778 C128.74084,83.2747748 128.226346,82.9737778 127.512342,82.9737778 C127.19034,82.9737778 126.861344,83.0577769 126.525342,83.2257778 C126.18934,83.3937786 125.951343,83.6947756 125.811342,84.1287778 L125.811342,88.8747778 C125.867342,89.1547792 126.038841,89.3997767 126.325842,89.6097778 C126.612843,89.8197788 126.98034,89.9247778 127.428342,89.9247778 L127.428342,89.9247778 Z M140.30893,92.1507778 C139.454926,92.1507778 138.684934,92.0177791 137.99893,91.7517778 C137.312927,91.4857764 136.724933,91.1042803 136.23493,90.6072778 C135.744928,90.1102753 135.366932,89.5117813 135.10093,88.8117778 C134.834929,88.1117743 134.70193,87.3277821 134.70193,86.4597778 C134.70193,85.5917734 134.834929,84.8042813 135.10093,84.0972778 C135.366932,83.3902742 135.744928,82.7882803 136.23493,82.2912778 C136.724933,81.7942753 137.312927,81.4092791 137.99893,81.1362778 C138.684934,80.8632764 139.454926,80.7267778 140.30893,80.7267778 C141.162935,80.7267778 141.936427,80.8632764 142.62943,81.1362778 C143.322434,81.4092791 143.913928,81.7942753 144.40393,82.2912778 C144.893933,82.7882803 145.271929,83.3902742 145.53793,84.0972778 C145.803932,84.8042813 145.93693,85.5917734 145.93693,86.4597778 C145.93693,87.3277821 145.803932,88.1117743 145.53793,88.8117778 C145.271929,89.5117813 144.893933,90.1102753 144.40393,90.6072778 C143.913928,91.1042803 143.322434,91.4857764 142.62943,91.7517778 C141.936427,92.0177791 141.162935,92.1507778 140.30893,92.1507778 L140.30893,92.1507778 Z M140.30893,89.9247778 C140.812933,89.9247778 141.236429,89.8267788 141.57943,89.6307778 C141.922432,89.4347768 142.195429,89.1722794 142.39843,88.8432778 C142.601431,88.5142761 142.74493,88.1432798 142.82893,87.7302778 C142.912931,87.3172757 142.95493,86.8937799 142.95493,86.4597778 C142.95493,86.0257756 142.912931,85.5987799 142.82893,85.1787778 C142.74493,84.7587757 142.601431,84.3877794 142.39843,84.0657778 C142.195429,83.7437762 141.922432,83.4812788 141.57943,83.2782778 C141.236429,83.0752768 140.812933,82.9737778 140.30893,82.9737778 C139.804928,82.9737778 139.384932,83.0752768 139.04893,83.2782778 C138.712929,83.4812788 138.443431,83.7437762 138.24043,84.0657778 C138.037429,84.3877794 137.893931,84.7587757 137.80993,85.1787778 C137.72593,85.5987799 137.68393,86.0257756 137.68393,86.4597778 C137.68393,86.8937799 137.72593,87.3172757 137.80993,87.7302778 C137.893931,88.1432798 138.037429,88.5142761 138.24043,88.8432778 C138.443431,89.1722794 138.712929,89.4347768 139.04893,89.6307778 C139.384932,89.8267788 139.804928,89.9247778 140.30893,89.9247778 L140.30893,89.9247778 Z M148.464519,81.0207778 L151.299519,81.0207778 L151.299519,82.4067778 L151.341519,82.4067778 C151.70552,81.8187748 152.167516,81.3917791 152.727519,81.1257778 C153.287521,80.8597764 153.903515,80.7267778 154.575519,80.7267778 C155.429523,80.7267778 156.164515,80.8877762 156.780519,81.2097778 C157.396522,81.5317794 157.907517,81.9587751 158.313519,82.4907778 C158.719521,83.0227804 159.020518,83.6422742 159.216519,84.3492778 C159.41252,85.0562813 159.510519,85.7947739 159.510519,86.5647778 C159.510519,87.2927814 159.41252,87.9927744 159.216519,88.6647778 C159.020518,89.3367811 158.723021,89.9317752 158.324019,90.4497778 C157.925017,90.9677804 157.428022,91.3807762 156.833019,91.6887778 C156.238016,91.9967793 155.541523,92.1507778 154.743519,92.1507778 C154.071515,92.1507778 153.452021,92.0142791 152.885019,91.7412778 C152.318016,91.4682764 151.85252,91.0657804 151.488519,90.5337778 L151.446519,90.5337778 L151.446519,95.6787778 L148.464519,95.6787778 L148.464519,81.0207778 Z M153.945519,89.9247778 C154.435521,89.9247778 154.845017,89.8267788 155.174019,89.6307778 C155.50302,89.4347768 155.769018,89.1792794 155.972019,88.8642778 C156.17502,88.5492762 156.318518,88.1852798 156.402519,87.7722778 C156.486519,87.3592757 156.528519,86.92878 156.528519,86.4807778 C156.528519,86.0467756 156.483019,85.6197799 156.392019,85.1997778 C156.301018,84.7797757 156.15052,84.4052794 155.940519,84.0762778 C155.730517,83.7472761 155.46102,83.4812788 155.132019,83.2782778 C154.803017,83.0752768 154.400521,82.9737778 153.924519,82.9737778 C153.434516,82.9737778 153.02502,83.0752768 152.696019,83.2782778 C152.367017,83.4812788 152.10102,83.7437762 151.898019,84.0657778 C151.695018,84.3877794 151.551519,84.7622756 151.467519,85.1892778 C151.383518,85.6162799 151.341519,86.0467756 151.341519,86.4807778 C151.341519,86.92878 151.387018,87.3592757 151.478019,87.7722778 C151.569019,88.1852798 151.716018,88.5492762 151.919019,88.8642778 C152.12202,89.1792794 152.388017,89.4347768 152.717019,89.6307778 C153.04602,89.8267788 153.455516,89.9247778 153.945519,89.9247778 L153.945519,89.9247778 Z M161.891107,81.0207778 L166.217107,81.0207778 L168.464107,88.9167778 L168.548107,88.9167778 L170.795107,81.0207778 L175.121107,81.0207778 L175.121107,91.8777778 L172.307107,91.8777778 L172.307107,83.6247778 L172.244107,83.6247778 L169.913107,91.8777778 L167.099107,91.8777778 L164.768107,83.6247778 L164.705107,83.6247778 L164.705107,91.8777778 L161.891107,91.8777778 L161.891107,81.0207778 Z M181.218695,92.1507778 C180.700692,92.1507778 180.217697,92.0877784 179.769695,91.9617778 C179.321693,91.8357771 178.929697,91.6397791 178.593695,91.3737778 C178.257693,91.1077764 177.995196,90.7717798 177.806195,90.3657778 C177.617194,89.9597757 177.522695,89.4767806 177.522695,88.9167778 C177.522695,88.3007747 177.631194,87.7932798 177.848195,87.3942778 C178.065196,86.9952758 178.345193,86.676779 178.688195,86.4387778 C179.031197,86.2007766 179.423193,86.0222784 179.864195,85.9032778 C180.305197,85.7842772 180.749693,85.6897781 181.197695,85.6197778 C181.645697,85.5497774 182.086693,85.493778 182.520695,85.4517778 C182.954697,85.4097776 183.339693,85.3467782 183.675695,85.2627778 C184.011697,85.1787774 184.277694,85.0562786 184.473695,84.8952778 C184.669696,84.734277 184.760695,84.4997793 184.746695,84.1917778 C184.746695,83.8837762 184.694196,83.6317788 184.589195,83.4357778 C184.484195,83.2397768 184.344196,83.0892783 184.169195,82.9842778 C183.994194,82.8792773 183.791196,82.809278 183.560195,82.7742778 C183.329194,82.7392776 183.080696,82.7217778 182.814695,82.7217778 C182.226692,82.7217778 181.764697,82.8477765 181.428695,83.0997778 C181.092693,83.351779 180.896695,83.7717748 180.840695,84.3597778 L177.858695,84.3597778 C177.900695,83.6737743 178.075694,83.0962801 178.383695,82.6272778 C178.691697,82.1582754 179.083693,81.7837792 179.559695,81.5037778 C180.035697,81.2237764 180.567692,81.0242784 181.155695,80.9052778 C181.743698,80.7862772 182.345692,80.7267778 182.961695,80.7267778 C183.507698,80.7267778 184.060692,80.7652774 184.620695,80.8422778 C185.180698,80.9192782 185.691693,81.0697767 186.153695,81.2937778 C186.615697,81.5177789 186.993694,81.8327757 187.287695,82.2387778 C187.581697,82.6447798 187.728695,83.1697746 187.728695,83.8137778 L187.728695,89.4627778 C187.728695,89.9527802 187.756695,90.4217755 187.812695,90.8697778 C187.868695,91.31778 187.966694,91.6537767 188.106695,91.8777778 L185.082695,91.8777778 C185.026695,91.7097769 184.981195,91.5382787 184.946195,91.3632778 C184.911195,91.1882769 184.886695,91.0097787 184.872695,90.8277778 C184.396693,91.3177802 183.836698,91.6607768 183.192695,91.8567778 C182.548692,92.0527788 181.890698,92.1507778 181.218695,92.1507778 L181.218695,92.1507778 Z M182.331695,90.1767778 C182.919698,90.1767778 183.374693,90.0787788 183.696695,89.8827778 C184.018697,89.6867768 184.256694,89.4522791 184.410695,89.1792778 C184.564696,88.9062764 184.659195,88.6297792 184.694195,88.3497778 C184.729195,88.0697764 184.746695,87.8457786 184.746695,87.6777778 L184.746695,86.5647778 C184.620694,86.6767783 184.466696,86.7642775 184.284695,86.8272778 C184.102694,86.8902781 183.899696,86.9427776 183.675695,86.9847778 C183.451694,87.026778 183.220696,87.0617776 182.982695,87.0897778 C182.744694,87.1177779 182.506696,87.1527776 182.268695,87.1947778 C182.030694,87.236778 181.806696,87.2927774 181.596695,87.3627778 C181.386694,87.4327781 181.201196,87.5272772 181.040195,87.6462778 C180.879194,87.7652784 180.749696,87.9157769 180.651695,88.0977778 C180.553695,88.2797787 180.504695,88.5107764 180.504695,88.7907778 C180.504695,89.0707792 180.553695,89.2982769 180.651695,89.4732778 C180.749696,89.6482787 180.882694,89.7882773 181.050695,89.8932778 C181.218696,89.9982783 181.414694,90.0717776 181.638695,90.1137778 C181.862696,90.155778 182.093694,90.1767778 182.331695,90.1767778 L182.331695,90.1767778 Z M199.160283,91.8777778 L190.634283,91.8777778 L190.634283,81.0207778 L193.616283,81.0207778 L193.616283,89.6307778 L197.627283,89.6307778 L197.627283,81.0207778 L200.609283,81.0207778 L200.609283,89.6307778 L201.953283,89.6307778 L201.953283,94.8597778 L199.160283,94.8597778 L199.160283,91.8777778 Z M203.892872,81.0207778 L206.748872,81.0207778 L206.748872,88.3707778 L210.843872,81.0207778 L214.224872,81.0207778 L214.224872,91.8777778 L211.368872,91.8777778 L211.368872,84.5277778 L207.273872,91.8777778 L203.892872,91.8777778 L203.892872,81.0207778 Z M222.35946,92.1507778 C221.505456,92.1507778 220.735463,92.0177791 220.04946,91.7517778 C219.363456,91.4857764 218.775462,91.1042803 218.28546,90.6072778 C217.795457,90.1102753 217.417461,89.5117813 217.15146,88.8117778 C216.885459,88.1117743 216.75246,87.3277821 216.75246,86.4597778 C216.75246,85.5917734 216.885459,84.8042813 217.15146,84.0972778 C217.417461,83.3902742 217.795457,82.7882803 218.28546,82.2912778 C218.775462,81.7942753 219.363456,81.4092791 220.04946,81.1362778 C220.735463,80.8632764 221.505456,80.7267778 222.35946,80.7267778 C223.213464,80.7267778 223.986956,80.8632764 224.67996,81.1362778 C225.372963,81.4092791 225.964457,81.7942753 226.45446,82.2912778 C226.944462,82.7882803 227.322459,83.3902742 227.58846,84.0972778 C227.854461,84.8042813 227.98746,85.5917734 227.98746,86.4597778 C227.98746,87.3277821 227.854461,88.1117743 227.58846,88.8117778 C227.322459,89.5117813 226.944462,90.1102753 226.45446,90.6072778 C225.964457,91.1042803 225.372963,91.4857764 224.67996,91.7517778 C223.986956,92.0177791 223.213464,92.1507778 222.35946,92.1507778 L222.35946,92.1507778 Z M222.35946,89.9247778 C222.863462,89.9247778 223.286958,89.8267788 223.62996,89.6307778 C223.972962,89.4347768 224.245959,89.1722794 224.44896,88.8432778 C224.651961,88.5142761 224.795459,88.1432798 224.87946,87.7302778 C224.96346,87.3172757 225.00546,86.8937799 225.00546,86.4597778 C225.00546,86.0257756 224.96346,85.5987799 224.87946,85.1787778 C224.795459,84.7587757 224.651961,84.3877794 224.44896,84.0657778 C224.245959,83.7437762 223.972962,83.4812788 223.62996,83.2782778 C223.286958,83.0752768 222.863462,82.9737778 222.35946,82.9737778 C221.855457,82.9737778 221.435462,83.0752768 221.09946,83.2782778 C220.763458,83.4812788 220.493961,83.7437762 220.29096,84.0657778 C220.087959,84.3877794 219.94446,84.7587757 219.86046,85.1787778 C219.776459,85.5987799 219.73446,86.0257756 219.73446,86.4597778 C219.73446,86.8937799 219.776459,87.3172757 219.86046,87.7302778 C219.94446,88.1432798 220.087959,88.5142761 220.29096,88.8432778 C220.493961,89.1722794 220.763458,89.4347768 221.09946,89.6307778 C221.435462,89.8267788 221.855457,89.9247778 222.35946,89.9247778 L222.35946,89.9247778 Z M230.515048,81.0207778 L233.497048,81.0207778 L233.497048,84.9687778 L237.718048,84.9687778 L237.718048,81.0207778 L240.700048,81.0207778 L240.700048,91.8777778 L237.718048,91.8777778 L237.718048,87.3207778 L233.497048,87.3207778 L233.497048,91.8777778 L230.515048,91.8777778 L230.515048,81.0207778 Z M243.563636,81.0207778 L246.545636,81.0207778 L246.545636,84.9687778 L250.766636,84.9687778 L250.766636,81.0207778 L253.748636,81.0207778 L253.748636,91.8777778 L250.766636,91.8777778 L250.766636,87.3207778 L246.545636,87.3207778 L246.545636,91.8777778 L243.563636,91.8777778 L243.563636,81.0207778 Z M259.846225,92.1507778 C259.328222,92.1507778 258.845227,92.0877784 258.397225,91.9617778 C257.949222,91.8357771 257.557226,91.6397791 257.221225,91.3737778 C256.885223,91.1077764 256.622726,90.7717798 256.433725,90.3657778 C256.244724,89.9597757 256.150225,89.4767806 256.150225,88.9167778 C256.150225,88.3007747 256.258724,87.7932798 256.475725,87.3942778 C256.692726,86.9952758 256.972723,86.676779 257.315725,86.4387778 C257.658726,86.2007766 258.050722,86.0222784 258.491725,85.9032778 C258.932727,85.7842772 259.377222,85.6897781 259.825225,85.6197778 C260.273227,85.5497774 260.714222,85.493778 261.148225,85.4517778 C261.582227,85.4097776 261.967223,85.3467782 262.303225,85.2627778 C262.639226,85.1787774 262.905224,85.0562786 263.101225,84.8952778 C263.297226,84.734277 263.388225,84.4997793 263.374225,84.1917778 C263.374225,83.8837762 263.321725,83.6317788 263.216725,83.4357778 C263.111724,83.2397768 262.971726,83.0892783 262.796725,82.9842778 C262.621724,82.8792773 262.418726,82.809278 262.187725,82.7742778 C261.956724,82.7392776 261.708226,82.7217778 261.442225,82.7217778 C260.854222,82.7217778 260.392226,82.8477765 260.056225,83.0997778 C259.720223,83.351779 259.524225,83.7717748 259.468225,84.3597778 L256.486225,84.3597778 C256.528225,83.6737743 256.703223,83.0962801 257.011225,82.6272778 C257.319226,82.1582754 257.711222,81.7837792 258.187225,81.5037778 C258.663227,81.2237764 259.195222,81.0242784 259.783225,80.9052778 C260.371228,80.7862772 260.973222,80.7267778 261.589225,80.7267778 C262.135227,80.7267778 262.688222,80.7652774 263.248225,80.8422778 C263.808227,80.9192782 264.319222,81.0697767 264.781225,81.2937778 C265.243227,81.5177789 265.621223,81.8327757 265.915225,82.2387778 C266.209226,82.6447798 266.356225,83.1697746 266.356225,83.8137778 L266.356225,89.4627778 C266.356225,89.9527802 266.384224,90.4217755 266.440225,90.8697778 C266.496225,91.31778 266.594224,91.6537767 266.734225,91.8777778 L263.710225,91.8777778 C263.654224,91.7097769 263.608725,91.5382787 263.573725,91.3632778 C263.538724,91.1882769 263.514225,91.0097787 263.500225,90.8277778 C263.024222,91.3177802 262.464228,91.6607768 261.820225,91.8567778 C261.176221,92.0527788 260.518228,92.1507778 259.846225,92.1507778 L259.846225,92.1507778 Z M260.959225,90.1767778 C261.547228,90.1767778 262.002223,90.0787788 262.324225,89.8827778 C262.646226,89.6867768 262.884224,89.4522791 263.038225,89.1792778 C263.192225,88.9062764 263.286724,88.6297792 263.321725,88.3497778 C263.356725,88.0697764 263.374225,87.8457786 263.374225,87.6777778 L263.374225,86.5647778 C263.248224,86.6767783 263.094226,86.7642775 262.912225,86.8272778 C262.730224,86.8902781 262.527226,86.9427776 262.303225,86.9847778 C262.079224,87.026778 261.848226,87.0617776 261.610225,87.0897778 C261.372223,87.1177779 261.134226,87.1527776 260.896225,87.1947778 C260.658223,87.236778 260.434226,87.2927774 260.224225,87.3627778 C260.014224,87.4327781 259.828725,87.5272772 259.667725,87.6462778 C259.506724,87.7652784 259.377225,87.9157769 259.279225,88.0977778 C259.181224,88.2797787 259.132225,88.5107764 259.132225,88.7907778 C259.132225,89.0707792 259.181224,89.2982769 259.279225,89.4732778 C259.377225,89.6482787 259.510224,89.7882773 259.678225,89.8932778 C259.846226,89.9982783 260.042224,90.0717776 260.266225,90.1137778 C260.490226,90.155778 260.721223,90.1767778 260.959225,90.1767778 L260.959225,90.1767778 Z M271.571813,87.8037778 C270.801809,87.6777771 270.175315,87.3067809 269.692313,86.6907778 C269.209311,86.0747747 268.967813,85.3187823 268.967813,84.4227778 C268.967813,83.9467754 269.055312,83.5022798 269.230313,83.0892778 C269.405314,82.6762757 269.653811,82.3157793 269.975813,82.0077778 C270.297815,81.6997762 270.675811,81.4582787 271.109813,81.2832778 C271.543815,81.1082769 272.02681,81.0207778 272.558813,81.0207778 L279.131813,81.0207778 L279.131813,91.8777778 L276.149813,91.8777778 L276.149813,88.0557778 L274.742813,88.0557778 L271.781813,91.8777778 L268.127813,91.8777778 L271.571813,87.8037778 Z M276.149813,83.1837778 L273.776813,83.1837778 C273.09081,83.1837778 272.621814,83.3062766 272.369813,83.5512778 C272.117812,83.796279 271.991813,84.1217757 271.991813,84.5277778 C271.991813,84.9477799 272.114312,85.2837765 272.359313,85.5357778 C272.604314,85.787779 273.076809,85.9137778 273.776813,85.9137778 L276.149813,85.9137778 L276.149813,83.1837778 Z M293.573989,92.1507778 C292.747985,92.1507778 291.998993,92.0142791 291.326989,91.7412778 C290.654986,91.4682764 290.080992,91.0867802 289.604989,90.5967778 C289.128987,90.1067753 288.757991,89.5222812 288.491989,88.8432778 C288.225988,88.1642744 288.092989,87.4187818 288.092989,86.6067778 C288.092989,85.7667736 288.215488,84.9862814 288.460489,84.2652778 C288.705491,83.5442742 289.065987,82.9212804 289.541989,82.3962778 C290.017992,81.8712752 290.598986,81.4617792 291.284989,81.1677778 C291.970993,80.8737763 292.754985,80.7267778 293.636989,80.7267778 C294.280993,80.7267778 294.900486,80.8107769 295.495489,80.9787778 C296.090492,81.1467786 296.622487,81.4022761 297.091489,81.7452778 C297.560492,82.0882795 297.941988,82.5187752 298.235989,83.0367778 C298.529991,83.5547804 298.697989,84.1567743 298.739989,84.8427778 L295.820989,84.8427778 C295.624988,83.5967715 294.889996,82.9737778 293.615989,82.9737778 C293.139987,82.9737778 292.740991,83.0822767 292.418989,83.2992778 C292.096988,83.5162789 291.83449,83.7962761 291.631489,84.1392778 C291.428488,84.4822795 291.28499,84.8637757 291.200989,85.2837778 C291.116989,85.7037799 291.074989,86.1097758 291.074989,86.5017778 C291.074989,86.8937797 291.116989,87.2927757 291.200989,87.6987778 C291.28499,88.1047798 291.421489,88.4722761 291.610489,88.8012778 C291.79949,89.1302794 292.054988,89.3997767 292.376989,89.6097778 C292.698991,89.8197788 293.090987,89.9247778 293.552989,89.9247778 C294.266993,89.9247778 294.816488,89.7252798 295.201489,89.3262778 C295.586491,88.9272758 295.827989,88.3917811 295.925989,87.7197778 L298.802989,87.7197778 C298.606988,89.161785 298.046994,90.260774 297.122989,91.0167778 C296.198985,91.7727816 295.015997,92.1507778 293.573989,92.1507778 L293.573989,92.1507778 Z M301.078578,81.0207778 L303.934578,81.0207778 L303.934578,88.3707778 L308.029578,81.0207778 L311.410578,81.0207778 L311.410578,91.8777778 L308.554578,91.8777778 L308.554578,84.5277778 L304.459578,91.8777778 L301.078578,91.8777778 L301.078578,81.0207778 Z M319.419166,92.1507778 C318.593162,92.1507778 317.844169,92.0142791 317.172166,91.7412778 C316.500163,91.4682764 315.926168,91.0867802 315.450166,90.5967778 C314.974164,90.1067753 314.603167,89.5222812 314.337166,88.8432778 C314.071165,88.1642744 313.938166,87.4187818 313.938166,86.6067778 C313.938166,85.7667736 314.060665,84.9862814 314.305666,84.2652778 C314.550667,83.5442742 314.911164,82.9212804 315.387166,82.3962778 C315.863168,81.8712752 316.444163,81.4617792 317.130166,81.1677778 C317.816169,80.8737763 318.600162,80.7267778 319.482166,80.7267778 C320.126169,80.7267778 320.745663,80.8107769 321.340666,80.9787778 C321.935669,81.1467786 322.467664,81.4022761 322.936666,81.7452778 C323.405668,82.0882795 323.787165,82.5187752 324.081166,83.0367778 C324.375167,83.5547804 324.543166,84.1567743 324.585166,84.8427778 L321.666166,84.8427778 C321.470165,83.5967715 320.735172,82.9737778 319.461166,82.9737778 C318.985164,82.9737778 318.586168,83.0822767 318.264166,83.2992778 C317.942164,83.5162789 317.679667,83.7962761 317.476666,84.1392778 C317.273665,84.4822795 317.130166,84.8637757 317.046166,85.2837778 C316.962166,85.7037799 316.920166,86.1097758 316.920166,86.5017778 C316.920166,86.8937797 316.962166,87.2927757 317.046166,87.6987778 C317.130166,88.1047798 317.266665,88.4722761 317.455666,88.8012778 C317.644667,89.1302794 317.900164,89.3997767 318.222166,89.6097778 C318.544168,89.8197788 318.936164,89.9247778 319.398166,89.9247778 C320.11217,89.9247778 320.661664,89.7252798 321.046666,89.3262778 C321.431668,88.9272758 321.673166,88.3917811 321.771166,87.7197778 L324.648166,87.7197778 C324.452165,89.161785 323.892171,90.260774 322.968166,91.0167778 C322.044161,91.7727816 320.861173,92.1507778 319.419166,92.1507778 L319.419166,92.1507778 Z M329.569754,83.2677778 L325.999754,83.2677778 L325.999754,81.0207778 L336.121754,81.0207778 L336.121754,83.2677778 L332.551754,83.2677778 L332.551754,91.8777778 L329.569754,91.8777778 L329.569754,83.2677778 Z M343.080343,92.1507778 C342.226338,92.1507778 341.456346,92.0142791 340.770343,91.7412778 C340.084339,91.4682764 339.503345,91.0797803 339.027343,90.5757778 C338.55134,90.0717753 338.183844,89.4697813 337.924843,88.7697778 C337.665841,88.0697743 337.536343,87.299782 337.536343,86.4597778 C337.536343,85.6477737 337.669341,84.8917813 337.935343,84.1917778 C338.201344,83.4917743 338.57934,82.8862803 339.069343,82.3752778 C339.559345,81.8642752 340.143839,81.4617792 340.822843,81.1677778 C341.501846,80.8737763 342.254338,80.7267778 343.080343,80.7267778 C343.948347,80.7267778 344.714839,80.8877762 345.379843,81.2097778 C346.044846,81.5317794 346.59784,81.9622751 347.038843,82.5012778 C347.479845,83.0402805 347.812341,83.6667742 348.036343,84.3807778 C348.260344,85.0947813 348.372343,85.8367739 348.372343,86.6067778 L348.372343,86.8902778 C348.372343,86.9812782 348.365343,87.0757773 348.351343,87.1737778 L340.518343,87.1737778 C340.560343,88.1397826 340.80534,88.8397756 341.253343,89.2737778 C341.701345,89.7077799 342.345338,89.9247778 343.185343,89.9247778 C343.787346,89.9247778 344.30534,89.7742793 344.739343,89.4732778 C345.173345,89.1722763 345.439342,88.8537795 345.537343,88.5177778 L348.162343,88.5177778 C347.74234,89.8197843 347.098347,90.750775 346.230343,91.3107778 C345.362338,91.8707806 344.312349,92.1507778 343.080343,92.1507778 L343.080343,92.1507778 Z M345.369343,85.2837778 C345.229342,84.527774 344.980844,83.9537797 344.623843,83.5617778 C344.266841,83.1697758 343.724346,82.9737778 342.996343,82.9737778 C342.50634,82.9737778 342.107344,83.054277 341.799343,83.2152778 C341.491341,83.3762786 341.242843,83.5757766 341.053843,83.8137778 C340.864842,84.051779 340.731843,84.3037764 340.654843,84.5697778 C340.577842,84.8357791 340.532343,85.0737767 340.518343,85.2837778 L345.369343,85.2837778 Z M350.710931,81.0207778 L355.036931,81.0207778 L357.283931,88.9167778 L357.367931,88.9167778 L359.614931,81.0207778 L363.940931,81.0207778 L363.940931,91.8777778 L361.126931,91.8777778 L361.126931,83.6247778 L361.063931,83.6247778 L358.732931,91.8777778 L355.918931,91.8777778 L353.587931,83.6247778 L353.524931,83.6247778 L353.524931,91.8777778 L350.710931,91.8777778 L350.710931,81.0207778 Z M370.038519,92.1507778 C369.520516,92.1507778 369.037521,92.0877784 368.589519,91.9617778 C368.141517,91.8357771 367.749521,91.6397791 367.413519,91.3737778 C367.077517,91.1077764 366.81502,90.7717798 366.626019,90.3657778 C366.437018,89.9597757 366.342519,89.4767806 366.342519,88.9167778 C366.342519,88.3007747 366.451018,87.7932798 366.668019,87.3942778 C366.88502,86.9952758 367.165017,86.676779 367.508019,86.4387778 C367.851021,86.2007766 368.243017,86.0222784 368.684019,85.9032778 C369.125021,85.7842772 369.569517,85.6897781 370.017519,85.6197778 C370.465521,85.5497774 370.906517,85.493778 371.340519,85.4517778 C371.774521,85.4097776 372.159517,85.3467782 372.495519,85.2627778 C372.831521,85.1787774 373.097518,85.0562786 373.293519,84.8952778 C373.48952,84.734277 373.580519,84.4997793 373.566519,84.1917778 C373.566519,83.8837762 373.51402,83.6317788 373.409019,83.4357778 C373.304019,83.2397768 373.16402,83.0892783 372.989019,82.9842778 C372.814018,82.8792773 372.61102,82.809278 372.380019,82.7742778 C372.149018,82.7392776 371.90052,82.7217778 371.634519,82.7217778 C371.046516,82.7217778 370.584521,82.8477765 370.248519,83.0997778 C369.912517,83.351779 369.716519,83.7717748 369.660519,84.3597778 L366.678519,84.3597778 C366.720519,83.6737743 366.895518,83.0962801 367.203519,82.6272778 C367.511521,82.1582754 367.903517,81.7837792 368.379519,81.5037778 C368.855521,81.2237764 369.387516,81.0242784 369.975519,80.9052778 C370.563522,80.7862772 371.165516,80.7267778 371.781519,80.7267778 C372.327522,80.7267778 372.880516,80.7652774 373.440519,80.8422778 C374.000522,80.9192782 374.511517,81.0697767 374.973519,81.2937778 C375.435521,81.5177789 375.813518,81.8327757 376.107519,82.2387778 C376.401521,82.6447798 376.548519,83.1697746 376.548519,83.8137778 L376.548519,89.4627778 C376.548519,89.9527802 376.576519,90.4217755 376.632519,90.8697778 C376.688519,91.31778 376.786518,91.6537767 376.926519,91.8777778 L373.902519,91.8777778 C373.846519,91.7097769 373.801019,91.5382787 373.766019,91.3632778 C373.731019,91.1882769 373.706519,91.0097787 373.692519,90.8277778 C373.216517,91.3177802 372.656522,91.6607768 372.012519,91.8567778 C371.368516,92.0527788 370.710522,92.1507778 370.038519,92.1507778 L370.038519,92.1507778 Z M371.151519,90.1767778 C371.739522,90.1767778 372.194517,90.0787788 372.516519,89.8827778 C372.838521,89.6867768 373.076518,89.4522791 373.230519,89.1792778 C373.38452,88.9062764 373.479019,88.6297792 373.514019,88.3497778 C373.549019,88.0697764 373.566519,87.8457786 373.566519,87.6777778 L373.566519,86.5647778 C373.440518,86.6767783 373.28652,86.7642775 373.104519,86.8272778 C372.922518,86.8902781 372.71952,86.9427776 372.495519,86.9847778 C372.271518,87.026778 372.04052,87.0617776 371.802519,87.0897778 C371.564518,87.1177779 371.32652,87.1527776 371.088519,87.1947778 C370.850518,87.236778 370.62652,87.2927774 370.416519,87.3627778 C370.206518,87.4327781 370.02102,87.5272772 369.860019,87.6462778 C369.699018,87.7652784 369.56952,87.9157769 369.471519,88.0977778 C369.373519,88.2797787 369.324519,88.5107764 369.324519,88.7907778 C369.324519,89.0707792 369.373519,89.2982769 369.471519,89.4732778 C369.56952,89.6482787 369.702518,89.7882773 369.870519,89.8932778 C370.03852,89.9982783 370.234518,90.0717776 370.458519,90.1137778 C370.68252,90.155778 370.913518,90.1767778 371.151519,90.1767778 L371.151519,90.1767778 Z" id="Информационная-систе"></path>
                </g>
            </g>
        </g>
    </g>
</svg>